<?xml version="1.0" encoding="UTF-8" standalone="no"?>
<svg
   xmlns:dc="http://purl.org/dc/elements/1.1/"
   xmlns:cc="http://creativecommons.org/ns#"
   xmlns:rdf="http://www.w3.org/1999/02/22-rdf-syntax-ns#"
   xmlns:svg="http://www.w3.org/2000/svg"
   xmlns="http://www.w3.org/2000/svg"
   version="1.1"
   id="svg2"
   xml:space="preserve"
   width="241.27998"
   height="234.56"
   viewBox="0 0 241.27998 234.56"><metadata
     id="metadata8"><rdf:RDF><cc:Work
         rdf:about=""><dc:format>image/svg+xml</dc:format><dc:type
           rdf:resource="http://purl.org/dc/dcmitype/StillImage" /></cc:Work></rdf:RDF></metadata><defs
     id="defs6"><clipPath
       clipPathUnits="userSpaceOnUse"
       id="clipPath18"><path
         d="M 0,0 H 754.16663 V 733.30035 H 0 Z"
         clip-rule="evenodd"
         id="path16" /></clipPath><clipPath
       clipPathUnits="userSpaceOnUse"
       id="clipPath30"><path
         d="M 0,0 H 754.16663 V 724.35767 H 0 Z"
         clip-rule="evenodd"
         id="path28" /></clipPath></defs><g
     id="g10"
     transform="matrix(0.31999998,0,0,0.31999998,0,5.864e-6)"><g
       id="g12"><g
         id="g14"
         clip-path="url(#clipPath18)"><g
           id="g20"
           transform="scale(2.9808958)"><path
             d="M 0,0 H 253 V 246 H 0 Z"
             style="fill:#ffffff;fill-opacity:1;fill-rule:nonzero;stroke:none"
             id="path22" /></g></g></g><g
       id="g24"><g
         id="g26"
         clip-path="url(#clipPath30)"><g
           id="g32"
           transform="matrix(2.9808958,0,0,2.9808958,1.4904479,1.4904479)"><path
             d="M 131,191 V 127.37"
             style="fill:none;stroke:#000000;stroke-width:1;stroke-linecap:butt;stroke-linejoin:miter;stroke-miterlimit:10;stroke-dasharray:none;stroke-opacity:1"
             id="path34" /><path
             d="m 131,122.12 3.5,6.99999 -3.5,-1.74999 -3.5,1.74999 z"
             style="fill:#000000;fill-opacity:1;fill-rule:nonzero;stroke:none"
             id="path36" /><path
             d="m 131,122.12 3.5,6.99999 -3.5,-1.74999 -3.5,1.74999 z"
             style="fill:none;stroke:#000000;stroke-width:1;stroke-linecap:butt;stroke-linejoin:miter;stroke-miterlimit:10;stroke-dasharray:none;stroke-opacity:1"
             id="path38" /><path
             d="m 69,1 h 124 c 1.18188,0 2.35242,0.1152883 3.5116,0.3458649 1.15918,0.2305766 2.28473,0.572011 3.37666,1.0243033 1.09193,0.4522922 2.12924,1.0067515 3.11195,1.6633782 0.98272,0.6566267 1.89196,1.4028039 2.7277,2.2385312 0.83572,0.8357272 1.58189,1.7449464 2.23852,2.7276582 0.65662,0.9827109 1.21108,2.0200312 1.66338,3.1119612 0.45228,1.09193 0.79371,2.217489 1.02429,3.376676 C 210.88469,16.647558 210.99998,17.818102 211,19 v 84 c -2e-5,1.18189 -0.11531,2.35243 -0.34589,3.51162 -0.23057,1.15919 -0.57202,2.28474 -1.0243,3.37667 -0.4523,1.09194 -1.00676,2.12926 -1.66339,3.11197 -0.65662,0.9827 -1.40279,1.89192 -2.23851,2.72765 -0.83574,0.83573 -1.74498,1.5819 -2.7277,2.23853 -0.98271,0.65662 -2.02002,1.21109 -3.11195,1.66338 -1.09193,0.4523 -2.21748,0.79373 -3.37666,1.02431 C 195.35242,120.88471 194.18188,121 193,121 H 69 c -1.1819,0 -2.352448,-0.11529 -3.511635,-0.34587 -1.159187,-0.23058 -2.284744,-0.57201 -3.376674,-1.02431 -1.091931,-0.45229 -2.129254,-1.00676 -3.111962,-1.66338 -0.982712,-0.65663 -1.891929,-1.4028 -2.727653,-2.23853 -0.835732,-0.83573 -1.58191,-1.74495 -2.238533,-2.72765 -0.656628,-0.98271 -1.21109,-2.02003 -1.66338,-3.11197 -0.45229,-1.09193 -0.793724,-2.21748 -1.024303,-3.37667 C 51.115288,105.35243 51,104.18189 51,103 V 19 c 0,-1.181898 0.115288,-2.352442 0.345863,-3.511627 0.230576,-1.159187 0.57201,-2.284746 1.024304,-3.376676 0.452289,-1.09193 1.006748,-2.1292513 1.663376,-3.1119621 C 54.690166,8.017024 55.436344,7.1078048 56.272076,6.2720776 57.1078,5.4363503 58.017017,4.6901731 58.999729,4.0335464 59.982437,3.3769197 61.01976,2.8224604 62.111691,2.3701682 63.203621,1.9178759 64.329178,1.5764415 65.488365,1.3458649 66.647552,1.1152883 67.8181,1 69,1 Z"
             style="fill:#d8d8d6;fill-opacity:1;fill-rule:nonzero;stroke:none"
             id="path40" /><path
             d="m 69,1 h 124 c 1.18188,0 2.35242,0.1152883 3.5116,0.3458649 1.15918,0.2305766 2.28473,0.572011 3.37666,1.0243033 1.09193,0.4522922 2.12924,1.0067515 3.11195,1.6633782 0.98272,0.6566267 1.89196,1.4028039 2.7277,2.2385312 0.83572,0.8357272 1.58189,1.7449464 2.23852,2.7276582 0.65662,0.9827109 1.21108,2.0200312 1.66338,3.1119612 0.45228,1.09193 0.79371,2.217489 1.02429,3.376676 C 210.88469,16.647558 210.99998,17.818102 211,19 v 84 c -2e-5,1.18189 -0.11531,2.35243 -0.34589,3.51162 -0.23057,1.15919 -0.57202,2.28474 -1.0243,3.37667 -0.4523,1.09194 -1.00676,2.12926 -1.66339,3.11197 -0.65662,0.9827 -1.40279,1.89192 -2.23851,2.72765 -0.83574,0.83573 -1.74498,1.5819 -2.7277,2.23853 -0.98271,0.65662 -2.02002,1.21109 -3.11195,1.66338 -1.09193,0.4523 -2.21748,0.79373 -3.37666,1.02431 C 195.35242,120.88471 194.18188,121 193,121 H 69 c -1.1819,0 -2.352448,-0.11529 -3.511635,-0.34587 -1.159187,-0.23058 -2.284744,-0.57201 -3.376674,-1.02431 -1.091931,-0.45229 -2.129254,-1.00676 -3.111962,-1.66338 -0.982712,-0.65663 -1.891929,-1.4028 -2.727653,-2.23853 -0.835732,-0.83573 -1.58191,-1.74495 -2.238533,-2.72765 -0.656628,-0.98271 -1.21109,-2.02003 -1.66338,-3.11197 -0.45229,-1.09193 -0.793724,-2.21748 -1.024303,-3.37667 C 51.115288,105.35243 51,104.18189 51,103 V 19 c 0,-1.181898 0.115288,-2.352442 0.345863,-3.511627 0.230576,-1.159187 0.57201,-2.284746 1.024304,-3.376676 0.452289,-1.09193 1.006748,-2.1292513 1.663376,-3.1119621 C 54.690166,8.017024 55.436344,7.1078048 56.272076,6.2720776 57.1078,5.4363503 58.017017,4.6901731 58.999729,4.0335464 59.982437,3.3769197 61.01976,2.8224604 62.111691,2.3701682 63.203621,1.9178759 64.329178,1.5764415 65.488365,1.3458649 66.647552,1.1152883 67.8181,1 69,1 Z"
             style="fill:none;stroke:#000000;stroke-width:1;stroke-linecap:butt;stroke-linejoin:miter;stroke-miterlimit:10;stroke-dasharray:none;stroke-opacity:1"
             id="path42" /></g><g
           id="g44"
           transform="scale(2.9808958)"><text
             transform="translate(98.40625,67)"
             style="font-variant:normal;font-weight:normal;font-size:16px;font-family:'Open Sans';-inkscape-font-specification:OpenSans;writing-mode:lr-tb;fill:#000000;fill-opacity:1;fill-rule:nonzero;stroke:none"
             id="text48"><tspan
               x="0 9.8203125 18.476562 26.539062 34.15625 38.203125 47.867188 56.765625"
               y="0"
               id="tspan46">Keycloak</tspan></text></g><g
           id="g50"
           transform="matrix(2.9808958,0,0,2.9808958,1.4904479,1.4904479)"><path
             d="m 101,198 c 0,-3.87 13.43,-7 30,-7 7.96001,0 15.59,0.74001 21.21001,2.05 C 157.84,194.36 161,196.14 161,198 v 36 c 0,3.87 -13.42999,7 -30,7 -16.57,0 -30,-3.13 -30,-7 z"
             style="fill:#dd042d;fill-opacity:1;fill-rule:nonzero;stroke:none"
             id="path52" /><path
             d="m 101,198 c 0,-3.87 13.43,-7 30,-7 7.96001,0 15.59,0.74001 21.21001,2.05 C 157.84,194.36 161,196.14 161,198 v 36 c 0,3.87 -13.42999,7 -30,7 -16.57,0 -30,-3.13 -30,-7 z"
             style="fill:none;stroke:#000000;stroke-width:1;stroke-linecap:butt;stroke-linejoin:miter;stroke-miterlimit:10;stroke-dasharray:none;stroke-opacity:1"
             id="path54" /><path
             d="m 161,198 c 0,3.87 -13.42999,7 -30,7 -16.57,0 -30,-3.13 -30,-7"
             style="fill:none;stroke:#000000;stroke-width:1;stroke-linecap:butt;stroke-linejoin:miter;stroke-miterlimit:10;stroke-dasharray:none;stroke-opacity:1"
             id="path56" /></g><g
           id="g58"
           transform="scale(2.9808958)"><text
             transform="translate(111.29688,228)"
             style="font-variant:normal;font-weight:normal;font-size:16px;font-family:'Open Sans';-inkscape-font-specification:OpenSans;writing-mode:lr-tb;fill:#ffffff;fill-opacity:1;fill-rule:nonzero;stroke:none"
             id="text62"><tspan
               x="0 8.3046875 19.648438 29.773438"
               y="0"
               id="tspan60">LDAP</tspan></text></g><g
           id="g64"
           transform="matrix(2.9808958,0,0,2.9808958,1.4904479,1.4904479)"><path
             d="M 1,21 H 81 V 51 H 1 Z"
             style="fill:#7ab51d;fill-opacity:1;fill-rule:nonzero;stroke:none"
             id="path66" /><path
             d="M 1,21 H 81 V 51 H 1 Z"
             style="fill:none;stroke:#000000;stroke-width:1;stroke-linecap:butt;stroke-linejoin:miter;stroke-miterlimit:10;stroke-dasharray:none;stroke-opacity:1"
             id="path68" /></g><g
           id="g70"
           transform="scale(2.9808958)"><text
             transform="translate(5.203125,42)"
             style="font-variant:normal;font-weight:normal;font-size:16px;font-family:'Open Sans';-inkscape-font-specification:OpenSans;writing-mode:lr-tb;fill:#ffffff;fill-opacity:1;fill-rule:nonzero;stroke:none"
             id="text74"><tspan
               x="0 8.78125 18.90625 33.351562 41.65625 45.8125 50.273438 61.9375"
               y="0"
               id="tspan72">SAML IDP</tspan></text></g><g
           id="g76"
           transform="matrix(2.9808958,0,0,2.9808958,1.4904479,1.4904479)"><path
             d="m 1,71 h 80 v 30 H 1 Z"
             style="fill:#7ab51d;fill-opacity:1;fill-rule:nonzero;stroke:none"
             id="path78" /><path
             d="m 1,71 h 80 v 30 H 1 Z"
             style="fill:none;stroke:#000000;stroke-width:1;stroke-linecap:butt;stroke-linejoin:miter;stroke-miterlimit:10;stroke-dasharray:none;stroke-opacity:1"
             id="path80" /></g><g
           id="g82"
           transform="scale(2.9808958)"><text
             transform="translate(6.703125,92)"
             style="font-variant:normal;font-weight:normal;font-size:16px;font-family:'Open Sans';-inkscape-font-specification:OpenSans;writing-mode:lr-tb;fill:#ffffff;fill-opacity:1;fill-rule:nonzero;stroke:none"
             id="text86"><tspan
               x="0 12.460938 16.921875 28.585938 38.679688 42.835938 47.296875 58.960938"
               y="0"
               id="tspan84">OIDC IDP</tspan></text></g><g
           id="g88"
           transform="matrix(2.9808958,0,0,2.9808958,1.4904479,1.4904479)"><path
             d="m 171,21 h 80 v 30 h -80 z"
             style="fill:#ffffff;fill-opacity:1;fill-rule:nonzero;stroke:none"
             id="path90" /><path
             d="m 177,20.5 h 3 v 1 h -3 z m 6,0 h 3 v 1 h -3 z m 6,0 h 3 v 1 h -3 z m 6,0 h 3 v 1 h -3 z m 6,0 h 3 v 1 h -3 z m 6,0 h 3 v 1 h -3 z m 6,0 h 3 v 1 h -3 z m 6,0 h 3 v 1 h -3 z m 6,0 h 3 v 1 h -3 z m 6,0 h 3 v 1 h -3 z m 6,0 h 3 v 1 h -3 z m 6,0 h 3 v 1 h -3 z m 6,0 h 2.5 V 22 h -1 v -1 h 0.5 v 0.5 h -2 z m 2.5,4.5 v 3 h -1 v -3 z m 0,6 v 3 h -1 v -3 z m 0,6 v 3 h -1 v -3 z m 0,6 v 3 h -1 v -3 z m 0,6 v 2.5 H 250 v -1 h 1 V 51 h -0.5 v -2 z m -4.5,2.5 h -3 v -1 h 3 z m -6,0 h -3 v -1 h 3 z m -6,0 h -3 v -1 h 3 z m -6,0 h -3 v -1 h 3 z m -6,0 h -3 v -1 h 3 z m -6,0 h -3 v -1 h 3 z m -6,0 h -3 v -1 h 3 z m -6,0 h -3 v -1 h 3 z m -6,0 h -3 v -1 h 3 z m -6,0 h -3 v -1 h 3 z m -6,0 h -3 v -1 h 3 z m -6,0 h -3 v -1 h 3 z m -6,0 h -3 v -1 h 3 z M 170.5,49 v -3 h 1 v 3 z m 0,-6 v -3 h 1 v 3 z m 0,-6 v -3 h 1 v 3 z m 0,-6 v -3 h 1 v 3 z m 0,-6 v -3 h 1 v 3 z m 0.5,-4.5 h 3 v 1 h -3 z"
             style="fill:#000000;fill-opacity:1;fill-rule:nonzero;stroke:none"
             id="path92" /></g><g
           id="g94"
           transform="scale(2.9808958)"><text
             transform="translate(178.875,42)"
             style="font-variant:normal;font-weight:normal;font-size:16px;font-family:'Open Sans';-inkscape-font-specification:OpenSans;writing-mode:lr-tb;fill:#000000;fill-opacity:1;fill-rule:nonzero;stroke:none"
             id="text98"><tspan
               x="0 8.78125 18.90625 33.351562 41.65625 45.8125 54.59375"
               y="0"
               id="tspan96">SAML SP</tspan></text></g><g
           id="g100"
           transform="matrix(2.9808958,0,0,2.9808958,1.4904479,1.4904479)"><path
             d="m 171,71 h 80 v 30 h -80 z"
             style="fill:#ffffff;fill-opacity:1;fill-rule:nonzero;stroke:none"
             id="path102" /><path
             d="m 177,70.5 h 3 v 1 h -3 z m 6,0 h 3 v 1 h -3 z m 6,0 h 3 v 1 h -3 z m 6,0 h 3 v 1 h -3 z m 6,0 h 3 v 1 h -3 z m 6,0 h 3 v 1 h -3 z m 6,0 h 3 v 1 h -3 z m 6,0 h 3 v 1 h -3 z m 6,0 h 3 v 1 h -3 z m 6,0 h 3 v 1 h -3 z m 6,0 h 3 v 1 h -3 z m 6,0 h 3 v 1 h -3 z m 6,0 h 2.5 V 72 h -1 v -1 h 0.5 v 0.5 h -2 z m 2.5,4.5 v 3 h -1 v -3 z m 0,6 v 3 h -1 v -3 z m 0,6 v 3 h -1 v -3 z m 0,6 v 3 h -1 v -3 z m 0,6 v 2.5 H 250 v -1 h 1 v 0.5 h -0.5 v -2 z m -4.5,2.5 h -3 v -1 h 3 z m -6,0 h -3 v -1 h 3 z m -6,0 h -3 v -1 h 3 z m -6,0 h -3 v -1 h 3 z m -6,0 h -3 v -1 h 3 z m -6,0 h -3 v -1 h 3 z m -6,0 h -3 v -1 h 3 z m -6,0 h -3 v -1 h 3 z m -6,0 h -3 v -1 h 3 z m -6,0 h -3 v -1 h 3 z m -6,0 h -3 v -1 h 3 z m -6,0 h -3 v -1 h 3 z m -6,0 h -3 v -1 h 3 z M 170.5,99 v -3 h 1 v 3 z m 0,-6 v -3 h 1 v 3 z m 0,-6 v -3 h 1 v 3 z m 0,-6 v -3 h 1 v 3 z m 0,-6 v -3 h 1 v 3 z m 0.5,-4.5 h 3 v 1 h -3 z"
             style="fill:#000000;fill-opacity:1;fill-rule:nonzero;stroke:none"
             id="path104" /></g><g
           id="g106"
           transform="scale(2.9808958)"><text
             transform="translate(179.8125,92)"
             style="font-variant:normal;font-weight:normal;font-size:16px;font-family:'Open Sans';-inkscape-font-specification:OpenSans;writing-mode:lr-tb;fill:#000000;fill-opacity:1;fill-rule:nonzero;stroke:none"
             id="text110"><tspan
               x="0 12.460938 16.921875 28.585938 38.679688 42.835938 52.726562"
               y="0"
               id="tspan108">OIDC RP</tspan></text></g></g></g></g></svg>
